{"title":"The Warriors 1979 DVDrip English Klam","uid":7971501,"size":1263862404,"categoryP":"video","categoryS":"movies","magnet":"?xt=urn:btih:3ba754ce9ba8e3cf6af9dffce781e0b68e600f9b&amp;dn=The+Warriors+1979+DVDrip+English+Klam&amp;tr=udp%3A%2F%2Ftracker.openbittorrent.com%3A80&amp;tr=udp%3A%2F%2Fopen.demonii.com%3A1337&amp;tr=udp%3A%2F%2Ftracker.coppersurfer.tk%3A6969&amp;tr=udp%3A%2F%2Fexodus.desync.com%3A6969","seeders":0,"leechers":1,"uploader":"Klambake","files":-1,"time":1356862669,"description":"With: Michael Beck, James Remar and Deborah Van Valkenburgh\n\nCyrus, de charismatische leider van de straatbende Gramarcy Riffs, wil de volledige controle over New York. Hij heeft daarvoor de hulp nodig van de andere bendes. Wanneer ze zich verenigen, zijn ze drie keer zo talrijk dan de politie en kunnen ze over de stad regeren. Cyrus maakt zijn plan bekend tijdens een nachtelijke vergadering in de Bronx, waar elke bende negen ongewapende vertegenwoordigers naartoe gestuurd heeft. Iedereen is enthousiast en bereid de krachten te bundelen. Maar dan wordt Cyrus neergeschoten door Luther, de aanvoerder van de Rogues. Hij beweert echter dat de moord door een van de Warriors gepleegd werd. Meteen wordt het bestand opgeheven en de Warriors vogelvrij verklaard.\n\nIn a future, dystopian New York City, turf gangs and cops rule the streets. When one gang leader tries to bring all gangs together against the cops Coney Island's The Warriors are framed for his murder and the entire city turns on them. \n &lt;a href=&quot;\nhttp://www.imdb.com/title/tt0080120&quot; rel=&quot;nofollow&quot; target=&quot;_NEW&quot;&gt;\nhttp://www.imdb.com/title/tt0080120&lt;/a&gt;\t\n\n------------------------ Dutch Friends ------------------------\n---------------------------------------------------------------\n- Bezoek ook eens mijn vrienden op: &lt;a href=&quot; http://www.Film-Test.nl&quot; rel=&quot;nofollow&quot; target=&quot;_NEW&quot;&gt; http://www.Film-Test.nl&lt;/a&gt; --\n----- voor mijn Nederlandse Sync. ondertitels ---- en meer ----\n------- http://www.Film-Test.nl ---- Over Films en meer -------\n---------------------------------------------------------------\n\nGeneral:\n\nComplete name                    : The WarriorsThe Warriors.avi\nFormat                           : AVI\nFormat/Info                      : Audio Video Interleave\nFile size                        : 1.18 GiB\nDuration                         : 1h 29mn\nOverall bit rate                 : 1 884 Kbps\n\nVideo:\n\nFormat                           : MPEG-4 Visual\nFormat profile                   : Simple@L3\nFormat settings, BVOP            : No\nFormat settings, QPel            : No\nFormat settings, GMC             : No warppoints\nFormat settings, Matrix          : Default (H.263)\nCodec ID                         : XVID\nCodec ID/Hint                    : XviD\nDuration                         : 1h 29mn\nBit rate                         : 1 681 Kbps\nWidth                            : 704 pixels\nHeight                           : 396 pixels\nDisplay aspect ratio             : 16:9\nFrame rate                       : 25.000 fps\nColor space                      : YUV\nChroma subsampling               : 4:2:0\nBit depth                        : 8 bits\nScan type                        : Progressive\nCompression mode                 : Lossy\nBits/(Pixel*Frame)               : 0.241\nStream size                      : 1.05 GiB (89%)\nWriting library                  : XviD 1.1.2 (UTC 2006-11-01)\n\nAudio:\n\nFormat                           : AC-3\nFormat/Info                      : Audio Coding 3\nMode extension                   : CM (complete main)\nCodec ID                         : 2000\nDuration                         : 1h 29mn\nBit rate mode                    : Constant\nBit rate                         : 192 Kbps\nChannel(s)                       : 2 channels\nChannel positions                : Front: L R\nSampling rate                    : 48.0 KHz\nBit depth                        : 16 bits\nCompression mode                 : Lossy\nStream size                      : 123 MiB (10%)\nAlignment                        : Aligned on interleaves\nInterleave, duration             : 32 ms (0.80 video frame)\nInterleave, preload duration     : 288 ms","torrent":{"xt":"urn:btih:3ba754ce9ba8e3cf6af9dffce781e0b68e600f9b","amp;dn":"The+Warriors+1979+DVDrip+English+Klam","amp;tr":["udp%3A%2F%2Ftracker.openbittorrent.com%3A80","udp%3A%2F%2Fopen.demonii.com%3A1337","udp%3A%2F%2Ftracker.coppersurfer.tk%3A6969","udp%3A%2F%2Fexodus.desync.com%3A6969"],"infoHash":"3ba754ce9ba8e3cf6af9dffce781e0b68e600f9b","infoHashBuffer":{"type":"Buffer","data":[59,167,84,206,155,168,227,207,106,249,223,252,231,129,224,182,142,96,15,155]},"announce":[],"urlList":[]}}